<?xml version="1.0" encoding="utf-8"?>
<!-- Generator: Adobe Illustrator 19.0.0, SVG Export Plug-In . SVG Version: 6.00 Build 0)  -->
<svg version="1.1" xmlns="http://www.w3.org/2000/svg" xmlns:xlink="http://www.w3.org/1999/xlink" x="0px" y="0px"
	 viewBox="0 0 1400 980" style="enable-background:new 0 0 1400 980;" xml:space="preserve">
<style type="text/css">
	.st0{fill:#CEBC98;}
	.st1{fill:#C0B08B;}
	.st2{fill:#896456;}
	.st3{fill:#D68C2D;}
	.st4{fill:#FDB913;}
	.st5{fill:#8CB4AB;}
	.st6{fill:#715247;}
	.st7{fill:#FFFFFF;}
</style>
<g id="_x31_">
	<g>
		<rect x="1.5" class="st0" width="1399.1" height="980"/>
	</g>
	<g>
		<path class="st1" d="M1263.5,653c0-0.3,0-0.7,0-1c0-307.6-249.4-557-557-557s-557,249.4-557,557c0,0.3,0,0.7,0,1H1263.5z"/>
	</g>
	<g>
		<rect x="969.1" y="481.8" class="st2" width="256.8" height="376.5"/>
	</g>
	<g>
		<rect x="433.5" y="313" class="st2" width="62.8" height="177"/>
	</g>
	<g>
		<rect x="311.5" y="313" class="st2" width="62.8" height="177"/>
	</g>
	<g>
		<rect x="189.5" y="313" class="st2" width="62.8" height="177"/>
	</g>
	<g>
		<rect x="140.2" y="490" class="st3" width="551.9" height="200.1"/>
	</g>
	<g>
		<rect x="140.2" y="683" class="st3" width="842.7" height="91.5"/>
	</g>
	<g>
		<rect x="963.7" y="525.7" class="st4" width="9" height="60"/>
	</g>
	<g>
		<rect x="1091.3" y="525.7" class="st4" width="9" height="60"/>
	</g>
	<g>
		<rect x="1218.9" y="525.7" class="st4" width="9" height="60"/>
	</g>
	<g>
		<rect x="963.7" y="525.7" class="st4" width="264.2" height="10"/>
	</g>
	<g>
		<rect x="233.3" y="431" class="st4" width="14.9" height="72.9"/>
	</g>
	<g>
		<rect x="411.8" y="431" class="st4" width="14.9" height="72.9"/>
	</g>
	<g>
		<rect x="233.3" y="431" class="st4" width="193.4" height="14"/>
	</g>
	<g>
		<rect x="393" y="481.8" class="st4" width="40.5" height="40.5"/>
	</g>
	<g>
		<path class="st5" d="M430.9,806.1h-35.3c-29.5,0-53.4-23.9-53.4-53.4V555.5c0-29.5,23.9-53.4,53.4-53.4h35.3
			c29.5,0,53.4,23.9,53.4,53.4v197.2C484.3,782.2,460.4,806.1,430.9,806.1z"/>
	</g>
	<g>
		<rect x="342.1" y="552.5" class="st4" width="142.2" height="15.1"/>
	</g>
	<g>
		<rect x="342.1" y="584" class="st4" width="142.2" height="15.1"/>
	</g>
	<g>
		<rect x="953.5" y="570.8" class="st4" width="29.4" height="29.4"/>
	</g>
	<g>
		<path class="st5" d="M968.2,806.1L968.2,806.1c-28.5,0-51.6-23.1-51.6-51.6V637.1c0-28.5,23.1-51.6,51.6-51.6h0
			c28.5,0,51.6,23.1,51.6,51.6v117.4C1019.8,783,996.7,806.1,968.2,806.1z"/>
	</g>
	<g>
		<rect x="916.6" y="622" class="st4" width="103.2" height="10.9"/>
	</g>
	<g>
		<rect x="916.6" y="644.9" class="st4" width="103.2" height="10.9"/>
	</g>
	<g>
		<rect x="1081" y="570.8" class="st4" width="29.4" height="29.4"/>
	</g>
	<g>
		<path class="st5" d="M1095.7,806.1L1095.7,806.1c-28.5,0-51.6-23.1-51.6-51.6V637.1c0-28.5,23.1-51.6,51.6-51.6h0
			c28.5,0,51.6,23.1,51.6,51.6v117.4C1147.3,783,1124.2,806.1,1095.7,806.1z"/>
	</g>
	<g>
		<rect x="1044.1" y="622" class="st4" width="103.2" height="10.9"/>
	</g>
	<g>
		<rect x="1044.1" y="644.9" class="st4" width="103.2" height="10.9"/>
	</g>
	<g>
		<rect x="1208.5" y="570.8" class="st4" width="29.4" height="29.4"/>
	</g>
	<g>
		<path class="st5" d="M1223.2,806.1L1223.2,806.1c-28.5,0-51.6-23.1-51.6-51.6V637.1c0-28.5,23.1-51.6,51.6-51.6h0
			c28.5,0,51.6,23.1,51.6,51.6v117.4C1274.8,783,1251.7,806.1,1223.2,806.1z"/>
	</g>
	<g>
		<rect x="1171.6" y="622" class="st4" width="103.2" height="10.9"/>
	</g>
	<g>
		<rect x="1171.6" y="644.9" class="st4" width="103.2" height="10.9"/>
	</g>
	<g>
		<rect x="220.5" y="481.8" class="st4" width="40.5" height="40.5"/>
	</g>
	<g>
		<path class="st5" d="M258.4,806.1h-35.3c-29.5,0-53.4-23.9-53.4-53.4V555.5c0-29.5,23.9-53.4,53.4-53.4h35.3
			c29.5,0,53.4,23.9,53.4,53.4v197.2C311.8,782.2,287.9,806.1,258.4,806.1z"/>
	</g>
	<g>
		<path class="st2" d="M1241.5,912.2H160.9c-40.7,0-74-33.3-74-74v0c0-40.7,33.3-74,74-74h1080.5c40.7,0,74,33.3,74,74v0
			C1315.5,878.9,1282.2,912.2,1241.5,912.2z"/>
	</g>
	<g>
		<path class="st6" d="M354.8,886.3H68.1c-21.3,0-38.7-17.4-38.7-38.7v0c0-21.3,17.4-38.7,38.7-38.7h286.7
			c21.3,0,38.7,17.4,38.7,38.7v0C393.5,869,376.1,886.3,354.8,886.3z"/>
	</g>
	<g>
		<path class="st6" d="M669.2,832.2H473.5c-17.1,0-31.2-14-31.2-31.2v0c0-17.1,14-31.2,31.2-31.2h195.7c17.1,0,31.2,14,31.2,31.2v0
			C700.4,818.2,686.4,832.2,669.2,832.2z"/>
	</g>
	<g>
		<path class="st6" d="M1033.5,929H643.3c-18.7,0-34-15.3-34-34l0,0c0-18.7,15.3-34,34-34h390.2c18.7,0,34,15.3,34,34l0,0
			C1067.5,913.7,1052.2,929,1033.5,929z"/>
	</g>
	<g>
		<path class="st6" d="M1350.8,836.6h-294.7c-19.1,0-34.7-15.6-34.7-34.7v0c0-19.1,15.6-34.7,34.7-34.7h294.7
			c19.1,0,34.7,15.6,34.7,34.7v0C1385.5,821,1369.9,836.6,1350.8,836.6z"/>
	</g>
	<g>
		<rect x="169.6" y="552.5" class="st4" width="142.2" height="15.1"/>
	</g>
	<g>
		<rect x="169.6" y="584" class="st4" width="142.2" height="15.1"/>
	</g>
	<g>
		<rect x="717.2" y="333.5" class="st3" width="199.4" height="376.5"/>
	</g>
	<g>
		<rect x="750" y="372.4" class="st2" width="48.1" height="48.1"/>
	</g>
	<g>
		<rect x="615.9" y="519.1" class="st2" width="48.1" height="48.1"/>
	</g>
	<g>
		<rect x="526.1" y="519.1" class="st2" width="48.1" height="48.1"/>
	</g>
	<g>
		<rect x="615.9" y="598" class="st2" width="48.1" height="48.1"/>
	</g>
	<g>
		<rect x="526.1" y="598" class="st2" width="48.1" height="48.1"/>
	</g>
	<g>
		<rect x="615.9" y="676.8" class="st2" width="48.1" height="48.1"/>
	</g>
	<g>
		<rect x="526.1" y="676.8" class="st2" width="48.1" height="48.1"/>
	</g>
	<g>
		<rect x="835.6" y="372.4" class="st2" width="48.1" height="48.1"/>
	</g>
	<g>
		<rect x="750" y="457.8" class="st2" width="48.1" height="48.1"/>
	</g>
	<g>
		<rect x="835.6" y="457.8" class="st2" width="48.1" height="48.1"/>
	</g>
	<g>
		<rect x="750" y="543.2" class="st2" width="48.1" height="48.1"/>
	</g>
	<g>
		<rect x="835.6" y="543.2" class="st2" width="48.1" height="48.1"/>
	</g>
	<g>
		<rect x="750" y="628.6" class="st2" width="48.1" height="48.1"/>
	</g>
	<g>
		<rect x="835.6" y="628.6" class="st2" width="48.1" height="48.1"/>
	</g>
	<g>
		<rect x="189.5" y="326" class="st4" width="62.8" height="16"/>
	</g>
	<g>
		<rect x="189.5" y="349.3" class="st4" width="62.8" height="8.6"/>
	</g>
	<g>
		<rect x="311.4" y="326" class="st4" width="62.9" height="16"/>
	</g>
	<g>
		<rect x="311.4" y="349.3" class="st4" width="62.9" height="8.6"/>
	</g>
	<g>
		<rect x="433.4" y="326" class="st4" width="62.9" height="16"/>
	</g>
	<g>
		<rect x="433.4" y="349.3" class="st4" width="62.9" height="8.6"/>
	</g>
	<g>
		<rect x="1029.7" y="205.2" class="st2" width="131.9" height="296.9"/>
	</g>
	<g>
		<rect x="963.4" y="459.7" class="st4" width="264.5" height="44.3"/>
	</g>
	<g>
		<rect x="1023.3" y="190.9" class="st4" width="148.3" height="28.7"/>
	</g>
	<g>
		<rect x="1029.7" y="238" class="st4" width="131.9" height="11"/>
	</g>
	<g>
		<rect x="1029.7" y="262" class="st4" width="131.9" height="11"/>
	</g>
	<g>
		<path class="st7" d="M256.9,256.2H146c-10.2,0-18.5-8.3-18.5-18.5l0,0c0-10.2,8.3-18.5,18.5-18.5h110.9c10.2,0,18.5,8.3,18.5,18.5
			l0,0C275.5,247.8,267.1,256.2,256.9,256.2z"/>
	</g>
	<g>
		<path class="st7" d="M295.5,207h-80c-8.8,0-16-7.2-16-16l0,0c0-8.8,7.2-16,16-16h80c8.8,0,16,7.2,16,16l0,0
			C311.5,199.8,304.3,207,295.5,207z"/>
	</g>
	<g>
		<path class="st7" d="M381.5,295h-92c-8.8,0-16-7.2-16-16l0,0c0-8.8,7.2-16,16-16h92c8.8,0,16,7.2,16,16l0,0
			C397.5,287.8,390.3,295,381.5,295z"/>
	</g>
	<g>
		<path class="st7" d="M433.5,229h-88c-6.6,0-12-5.4-12-12l0,0c0-6.6,5.4-12,12-12h88c6.6,0,12,5.4,12,12l0,0
			C445.5,223.6,440.1,229,433.5,229z"/>
	</g>
	<g>
		<path class="st7" d="M557.5,275h-88c-9.9,0-18-8.1-18-18l0,0c0-9.9,8.1-18,18-18h88c9.9,0,18,8.1,18,18l0,0
			C575.5,266.9,567.4,275,557.5,275z"/>
	</g>
	<g>
		<path class="st7" d="M633.5,203h-100c-7.7,0-14-6.3-14-14v-8c0-7.7,6.3-14,14-14h100c7.7,0,14,6.3,14,14v8
			C647.5,196.7,641.2,203,633.5,203z"/>
	</g>
	<g>
		<path class="st7" d="M1227.5,149h-212c-14.3,0-26-11.7-26-26l0,0c0-14.3,11.7-26,26-26h212c14.3,0,26,11.7,26,26l0,0
			C1253.5,137.3,1241.8,149,1227.5,149z"/>
	</g>
	<g>
		<path class="st7" d="M1283.5,83h-100c-11,0-20-9-20-20l0,0c0-11,9-20,20-20h100c11,0,20,9,20,20l0,0
			C1303.5,74,1294.5,83,1283.5,83z"/>
	</g>
	<g>
		<path class="st1" d="M179.5,89h-100c-11,0-20-9-20-20l0,0c0-11,9-20,20-20h100c11,0,20,9,20,20l0,0C199.5,80,190.5,89,179.5,89z"
			/>
	</g>
	<g>
		<path class="st1" d="M1319.5,231h-100c-11,0-20-9-20-20l0,0c0-11,9-20,20-20h100c11,0,20,9,20,20l0,0
			C1339.5,222,1330.5,231,1319.5,231z"/>
	</g>
	<g>
		<path class="st1" d="M1364.5,277h-76c-7.2,0-13-5.9-13-13v-4c0-7.1,5.8-13,13-13h76c7.2,0,13,5.9,13,13v4
			C1377.5,271.1,1371.6,277,1364.5,277z"/>
	</g>
	<g>
		<path class="st1" d="M318.1,153H170.9c-16.2,0-29.4-13.2-29.4-29.4v0c0-16.2,13.2-29.4,29.4-29.4h147.1
			c16.2,0,29.4,13.2,29.4,29.4v0C347.5,139.8,334.2,153,318.1,153z"/>
	</g>
	<g>
		<path class="st1" d="M974.1,93H826.9c-16.2,0-29.4-13.2-29.4-29.4v0c0-16.2,13.2-29.4,29.4-29.4h147.1c16.2,0,29.4,13.2,29.4,29.4
			v0C1003.5,79.8,990.2,93,974.1,93z"/>
	</g>
	<g>
		<path class="st7" d="M961.5,197h-104c-9.9,0-18-8.1-18-18l0,0c0-9.9,8.1-18,18-18h104c9.9,0,18,8.1,18,18l0,0
			C979.5,188.9,971.4,197,961.5,197z"/>
	</g>
	<g>
		<path class="st6" d="M435.5,941h-132c-12.1,0-22-9.9-22-22l0,0c0-12.1,9.9-22,22-22h132c12.1,0,22,9.9,22,22l0,0
			C457.5,931.1,447.6,941,435.5,941z"/>
	</g>
	<g>
		<path class="st6" d="M1231.5,891h-116c-8.8,0-16-7.2-16-16l0,0c0-8.8,7.2-16,16-16h116c8.8,0,16,7.2,16,16l0,0
			C1247.5,883.8,1240.3,891,1231.5,891z"/>
	</g>
	<g>
		<path class="st6" d="M851.5,841h-108c-8.8,0-16-7.2-16-16l0,0c0-8.8,7.2-16,16-16h108c8.8,0,16,7.2,16,16l0,0
			C867.5,833.8,860.3,841,851.5,841z"/>
	</g>
</g>
<g id="Designed_by_Vecteezy">
	<g>
		<g>
			<g>
				<path class="st7" d="M732.3,937.7c0.8,0,1.6,0.7,1.6,0.7L720,968.2c-1.5,0-5.2,0.2-6.1,0.2c-0.8,0-1.6-0.7-1.6-0.7l-4.8-29.8
					c2.9,0,6.5-0.2,7.6-0.2c0.8,0,1.6,0.7,1.6,0.7l1.5,14.6c0.1,1.3,0.1,3,0.1,4.8c0.5-2,1-3.9,1.5-5.2l5.8-14.7
					C728.1,937.9,731.3,937.7,732.3,937.7L732.3,937.7z"/>
			</g>
			<g>
				<path class="st7" d="M746.6,952.4c0,3.2-1.8,5.4-6.3,6.3l-4.7,1c0.4,2,1.6,3,3.8,3c2.6,0,4.4-2,4.4-2s1.3,0.7,1.3,2.3
					c0,2.7-4.1,5.6-9,5.6c-4.9,0-8.1-3.1-8.1-8.3c0-6,4.3-14.2,11.9-14.2C744,946.1,746.6,948.6,746.6,952.4L746.6,952.4z
					 M738.6,955.5c1-0.3,1.3-1.2,1.3-2.1c0-0.9-0.3-2.2-1.3-2.2c-1.9,0-2.7,3-3,5.3L738.6,955.5z"/>
			</g>
			<g>
				<path class="st7" d="M759.4,946.1c3.8,0,6.7,2,6.7,4.7c0,3.3-4,4.5-4,4.5s-1.2-3.6-3.9-3.6c-1.8,0-2.9,1.8-2.9,5.8
					c0,3.6,1,5.2,3.3,5.2c2.4,0,3.9-1.6,3.9-1.6s1.3,0.7,1.3,2.2c0,2.6-4,5.3-8.6,5.3c-4.9,0-8-3.1-8-8.2
					C747.3,954.3,751.7,946.1,759.4,946.1L759.4,946.1z"/>
			</g>
			<g>
				<path class="st7" d="M777.8,941.3c0.9,0,1.5,0.7,1.5,0.7l-0.7,4.5h4.8l-1.1,3.5c-0.4,1.1-0.9,1.7-2,1.7h-2.5l-1.4,8.9
					c-0.2,1.4,0.1,2.1,1.1,2.1c0.9,0,1.8-0.5,1.8-0.5s1.3,0.7,1.3,2.2c0,2.2-3.1,4.3-7,4.3c-4.1,0-5.8-2.5-5.1-7l1.6-9.9h-2.6
					l1.1-3.6c0.3-0.9,1.1-1.6,2-1.6h1.3l1.5-4.2C775.2,941.9,777,941.3,777.8,941.3L777.8,941.3z"/>
			</g>
			<g>
				<path class="st7" d="M801.2,952.4c0,3.2-1.8,5.4-6.3,6.3l-4.7,1c0.4,2,1.6,3,3.8,3c2.6,0,4.4-2,4.4-2s1.3,0.7,1.3,2.3
					c0,2.7-4.1,5.6-9,5.6c-4.9,0-8.1-3.1-8.1-8.3c0-6,4.3-14.2,11.9-14.2C798.6,946.1,801.2,948.6,801.2,952.4L801.2,952.4z
					 M793.2,955.5c1-0.3,1.3-1.2,1.3-2.1c0-0.9-0.3-2.2-1.3-2.2c-1.9,0-2.7,3-3,5.3L793.2,955.5z"/>
			</g>
			<g>
				<path class="st7" d="M820.5,952.4c0,3.2-1.8,5.4-6.3,6.3l-4.7,1c0.4,2,1.6,3,3.8,3c2.6,0,4.4-2,4.4-2s1.3,0.7,1.3,2.3
					c0,2.7-4.1,5.6-9,5.6c-4.9,0-8.1-3.1-8.1-8.3c0-6,4.3-14.2,11.9-14.2C817.9,946.1,820.5,948.6,820.5,952.4L820.5,952.4z
					 M812.5,955.5c1-0.3,1.3-1.2,1.3-2.1c0-0.9-0.3-2.2-1.3-2.2c-1.9,0-2.7,3-3,5.3L812.5,955.5z"/>
			</g>
			<g>
				<path class="st7" d="M836.3,960.5c0,0,1.6,1.5,1.6,4c0,3.3-2.8,4.2-5.2,4.2c-3.1,0-5.3-1.5-7.6-2.3c-0.6,0.7-1.3,1.5-1.9,2.3
					c0,0-3.5-0.1-3.5-2.4c0-2.9,4.8-7.8,9.9-13.4c-0.6-0.1-1.2-0.2-1.7-0.2c-2.9,0-4.1,1.5-4.1,1.5s-1.5-1.7-1.4-4
					c0.2-3.1,3.1-4,5.5-4c2.5,0,4.3,1,6.1,1.7l1.5-1.7c0,0,3.5,0.1,3.5,2.5c0,2.8-4.6,7.6-9.6,13c1.1,0.3,2,0.5,3,0.5
					C835.1,962.2,836.3,960.5,836.3,960.5L836.3,960.5z"/>
			</g>
			<g>
				<path class="st7" d="M858.7,966.7c-1.2,7.6-6.4,11.4-13,11.4c-4.2,0-7.3-2.2-7.3-4.8c0-1.7,1.4-2.5,1.4-2.5s1.4,1.3,4.2,1.3
					c2.6,0,6.2-1.1,6.8-5.1l0.5-3.1c-1.8,2.6-4.1,4.6-7.1,4.6c-3.3,0-4.8-2.7-3.9-8.3l0.9-6c0.6-3.7,0.7-6.7,0.7-6.7
					c2.4-0.4,5.5-1.5,6.6-1.5c0.8,0,1.6,0.7,1.6,0.7l-1.2,7.5l-1.1,6.9c-0.1,0.6,0,1,0.6,1c2.8,0,4.3-7.9,4.3-7.9
					c0.6-3.7,0.7-6.7,0.7-6.7c2.4-0.4,5.5-1.5,6.6-1.5c0.9,0,1.6,0.7,1.6,0.7l-1.2,7.5L858.7,966.7z"/>
			</g>
		</g>
		<g>
			<path class="st7" d="M538.1,947.4h7.4c1.7,0,3,0.1,3.8,0.4c1.2,0.3,2.2,1,3,1.9c0.8,0.9,1.5,2,1.9,3.3c0.4,1.3,0.7,2.9,0.7,4.8
				c0,1.7-0.2,3.1-0.6,4.3c-0.5,1.5-1.2,2.7-2.2,3.6c-0.7,0.7-1.7,1.2-2.9,1.6c-0.9,0.3-2.1,0.4-3.6,0.4h-7.7V947.4z M542.2,950.8
				v13.4h3c1.1,0,2-0.1,2.5-0.2c0.7-0.2,1.2-0.4,1.6-0.8c0.4-0.4,0.8-1,1.1-1.9c0.3-0.9,0.4-2.1,0.4-3.7c0-1.6-0.1-2.8-0.4-3.6
				c-0.3-0.8-0.7-1.5-1.2-2c-0.5-0.5-1.1-0.8-1.9-0.9c-0.6-0.1-1.7-0.2-3.3-0.2H542.2z"/>
			<path class="st7" d="M566.4,962.9l3.9,0.6c-0.5,1.4-1.3,2.5-2.3,3.2c-1.1,0.7-2.4,1.1-4,1.1c-2.5,0-4.4-0.8-5.6-2.5
				c-1-1.3-1.4-3-1.4-5c0-2.4,0.6-4.3,1.9-5.7c1.3-1.4,2.9-2.1,4.8-2.1c2.2,0,3.9,0.7,5.1,2.2c1.3,1.4,1.9,3.6,1.8,6.6h-9.7
				c0,1.1,0.3,2,0.9,2.7c0.6,0.6,1.3,1,2.2,1c0.6,0,1.1-0.2,1.5-0.5C565.8,964.1,566.2,963.6,566.4,962.9z M566.6,959
				c0-1.1-0.3-2-0.9-2.6c-0.6-0.6-1.2-0.9-2-0.9c-0.8,0-1.5,0.3-2.1,0.9c-0.6,0.6-0.8,1.4-0.8,2.5H566.6z"/>
			<path class="st7" d="M571.6,963.4l3.9-0.6c0.2,0.8,0.5,1.3,1,1.7c0.5,0.4,1.2,0.6,2.1,0.6c1,0,1.8-0.2,2.3-0.6
				c0.3-0.3,0.5-0.6,0.5-1c0-0.3-0.1-0.5-0.3-0.7c-0.2-0.2-0.6-0.4-1.3-0.5c-3.1-0.7-5.1-1.3-5.9-1.9c-1.2-0.8-1.7-1.9-1.7-3.3
				c0-1.3,0.5-2.3,1.5-3.2c1-0.9,2.6-1.3,4.7-1.3c2,0,3.5,0.3,4.5,1c1,0.7,1.6,1.6,2,2.9l-3.6,0.7c-0.2-0.6-0.5-1-0.9-1.3
				c-0.4-0.3-1.1-0.5-1.9-0.5c-1,0-1.7,0.1-2.2,0.4c-0.3,0.2-0.4,0.5-0.4,0.8c0,0.3,0.1,0.5,0.4,0.7c0.3,0.3,1.6,0.6,3.6,1.1
				c2.1,0.5,3.5,1,4.3,1.7c0.8,0.7,1.2,1.6,1.2,2.9c0,1.3-0.6,2.5-1.7,3.5c-1.1,1-2.8,1.4-5,1.4c-2,0-3.6-0.4-4.7-1.2
				C572.8,965.8,572,964.7,571.6,963.4z"/>
			<path class="st7" d="M588.1,950.9v-3.6h3.9v3.6H588.1z M588.1,967.5v-14.6h3.9v14.6H588.1z"/>
			<path class="st7" d="M595,968.5l4.4,0.5c0.1,0.5,0.2,0.9,0.5,1.1c0.4,0.3,0.9,0.4,1.7,0.4c1,0,1.8-0.2,2.3-0.5
				c0.3-0.2,0.6-0.5,0.8-1c0.1-0.3,0.2-0.9,0.2-1.8v-2.1c-1.2,1.6-2.6,2.4-4.4,2.4c-2,0-3.5-0.8-4.7-2.5c-0.9-1.3-1.3-2.9-1.3-4.9
				c0-2.4,0.6-4.3,1.8-5.6c1.2-1.3,2.6-1.9,4.4-1.9c1.8,0,3.3,0.8,4.5,2.4v-2.1h3.6V966c0,1.7-0.1,3-0.4,3.9c-0.3,0.9-0.7,1.5-1.2,2
				c-0.5,0.5-1.2,0.9-2.1,1.1c-0.9,0.3-1.9,0.4-3.3,0.4c-2.5,0-4.2-0.4-5.3-1.3s-1.6-1.9-1.6-3.2C595,968.8,595,968.7,595,968.5z
				 M598.5,959.9c0,1.6,0.3,2.7,0.9,3.4c0.6,0.7,1.3,1.1,2.2,1.1c0.9,0,1.7-0.4,2.4-1.1c0.7-0.7,1-1.8,1-3.3c0-1.5-0.3-2.6-0.9-3.4
				c-0.6-0.7-1.4-1.1-2.4-1.1c-0.9,0-1.7,0.4-2.3,1.1C598.8,957.3,598.5,958.4,598.5,959.9z"/>
			<path class="st7" d="M625.3,967.5h-3.9v-7.5c0-1.6-0.1-2.6-0.2-3.1c-0.2-0.5-0.4-0.8-0.8-1.1c-0.4-0.3-0.8-0.4-1.3-0.4
				c-0.7,0-1.3,0.2-1.8,0.6c-0.5,0.4-0.9,0.9-1.1,1.5c-0.2,0.6-0.3,1.7-0.3,3.4v6.6H612v-14.6h3.6v2.1c1.3-1.7,2.9-2.5,4.8-2.5
				c0.9,0,1.6,0.2,2.3,0.5c0.7,0.3,1.2,0.7,1.6,1.2c0.4,0.5,0.6,1,0.8,1.6c0.1,0.6,0.2,1.5,0.2,2.6V967.5z"/>
			<path class="st7" d="M637.2,962.9l3.9,0.6c-0.5,1.4-1.3,2.5-2.3,3.2c-1.1,0.7-2.4,1.1-4,1.1c-2.5,0-4.4-0.8-5.6-2.5
				c-1-1.3-1.4-3-1.4-5c0-2.4,0.6-4.3,1.9-5.7c1.3-1.4,2.9-2.1,4.8-2.1c2.2,0,3.9,0.7,5.1,2.2c1.3,1.4,1.9,3.6,1.8,6.6h-9.7
				c0,1.1,0.3,2,0.9,2.7c0.6,0.6,1.3,1,2.2,1c0.6,0,1.1-0.2,1.5-0.5C636.6,964.1,636.9,963.6,637.2,962.9z M637.4,959
				c0-1.1-0.3-2-0.9-2.6c-0.6-0.6-1.2-0.9-2-0.9c-0.8,0-1.5,0.3-2.1,0.9c-0.6,0.6-0.8,1.4-0.8,2.5H637.4z"/>
			<path class="st7" d="M657.2,967.5h-3.6v-2.1c-0.6,0.8-1.3,1.5-2.1,1.9c-0.8,0.4-1.6,0.6-2.5,0.6c-1.7,0-3.1-0.7-4.3-2
				c-1.2-1.4-1.8-3.2-1.8-5.7c0-2.5,0.6-4.4,1.7-5.7c1.2-1.3,2.6-1.9,4.4-1.9c1.6,0,3,0.7,4.2,2v-7.3h3.9V967.5z M646.9,959.9
				c0,1.6,0.2,2.7,0.6,3.4c0.6,1,1.5,1.5,2.6,1.5c0.9,0,1.6-0.4,2.3-1.1c0.6-0.8,0.9-1.9,0.9-3.4c0-1.7-0.3-2.9-0.9-3.6
				c-0.6-0.7-1.4-1.1-2.3-1.1c-0.9,0-1.7,0.4-2.3,1.1C647.2,957.4,646.9,958.5,646.9,959.9z"/>
			<path class="st7" d="M667.6,967.5v-20.2h3.9v7.3c1.2-1.4,2.6-2,4.2-2c1.8,0,3.3,0.6,4.4,1.9c1.2,1.3,1.7,3.1,1.7,5.6
				c0,2.5-0.6,4.4-1.8,5.8c-1.2,1.3-2.6,2-4.3,2c-0.8,0-1.7-0.2-2.5-0.6c-0.8-0.4-1.5-1-2.1-1.9v2.1H667.6z M671.4,959.9
				c0,1.5,0.2,2.6,0.7,3.4c0.7,1,1.6,1.5,2.7,1.5c0.9,0,1.6-0.4,2.2-1.1c0.6-0.7,0.9-1.9,0.9-3.4c0-1.7-0.3-2.9-0.9-3.6
				c-0.6-0.7-1.4-1.1-2.3-1.1c-0.9,0-1.7,0.4-2.3,1.1C671.7,957.3,671.4,958.4,671.4,959.9z"/>
			<path class="st7" d="M682.6,952.9h4.1l3.5,10.4l3.4-10.4h4l-5.2,14.1l-0.9,2.5c-0.3,0.9-0.7,1.5-1,2c-0.3,0.4-0.7,0.8-1.1,1.1
				c-0.4,0.3-0.9,0.5-1.5,0.7c-0.6,0.2-1.2,0.2-2,0.2c-0.7,0-1.5-0.1-2.2-0.2l-0.3-3c0.6,0.1,1.2,0.2,1.6,0.2c0.9,0,1.6-0.3,2-0.8
				c0.4-0.5,0.8-1.2,1-2L682.6,952.9z"/>
		</g>
	</g>
</g>
</svg>
